<svg xmlns="http://www.w3.org/2000/svg" viewBox="0 0 321.09 101.91"><defs><style>.cls-1{font-size:12px;fill:#231f20;font-family:Copperplate;}.cls-2,.cls-6{fill:none;}.cls-2,.cls-3,.cls-4,.cls-6,.cls-7,.cls-8{stroke:#231f20;stroke-miterlimit:10;}.cls-2,.cls-3{stroke-width:3px;}.cls-3{font-size:73.99px;font-family:Arial-Black, Arial Black;font-weight:800;}.cls-3,.cls-4{fill:#d7df23;}.cls-4{stroke-width:2.5px;}.cls-5{fill:#5bcaeb;}.cls-6{stroke-width:4px;}.cls-7,.cls-8{fill:#ed1c24;}.cls-8{stroke-width:0.75px;}</style></defs><g id="Layer_2" data-name="Layer 2"><g id="Layer_1-2" data-name="Layer 1"><text class="cls-1" transform="translate(77.63 98.64)">Noodles, Rice, and Banh Mi</text><line class="cls-2" x1="71.29" y1="95.63" x2="28.37" y2="95.63"/><line class="cls-2" x1="293.22" y1="95.63" x2="250.3" y2="95.63"/><text class="cls-3" transform="translate(121.63 64.98) scale(1.09 1)">Balo</text><polygon class="cls-4" points="274.89 16.64 292.62 13.51 310.32 16.64 309.39 21.93 292.6 18.97 275.82 21.93 274.89 16.64"/><rect class="cls-5" x="2" y="3.78" width="109.61" height="70.43" rx="10"/><rect class="cls-6" x="2" y="3.78" width="109.61" height="70.43" rx="10"/><path class="cls-7" d="M20.34,61.29,12.69,20.62s20-7.07,24-2.21-12,23-12,23L23.32,57.31Z"/><path class="cls-7" d="M42,10.27,45.73,62.5h4.21s-.47-16.29,3.74-18.82S70.54,66.59,70.54,66.59h6.08s-15-26.8-17.32-28.16-9.83,2.27-9.83,2.27Z"/><path class="cls-7" d="M74.5,42.06c11.9-3.85,23.39-7.35,25.94-4.55s.85,19.62-8.93,18.57S72.8,54,72.37,50.47,74.5,42.06,74.5,42.06Z"/><path class="cls-8" d="M93.63,34.79c3.62-4.21,7.87-9.91,7.87-6.94s-3,5.21-3.93,5.7A29,29,0,0,1,93.63,34.79Z"/><path class="cls-8" d="M81.86,13.52s10.3,4.22,9.6,7.78-9.25,5.25-7.33,8.37l1.92,3.13s-5.93-3.93-5.24-5.09,6.88-4,7.82-4.69c1.69-1.27.42-2.75-1-4.23S81.86,13.52,81.86,13.52Z"/></g></g></svg>